<?xml version="1.0" encoding="UTF-8" standalone="no" ?>
<!DOCTYPE svg PUBLIC "-//W3C//DTD SVG 1.1//EN" "http://www.w3.org/Graphics/SVG/1.1/DTD/svg11.dtd">
<svg xmlns="http://www.w3.org/2000/svg" xmlns:xlink="http://www.w3.org/1999/xlink" version="1.1" width="640" height="480" viewBox="0 0 640 480" xml:space="preserve">
<desc>Created with Fabric.js 3.6.3</desc>
<defs>
</defs>
<g transform="matrix(1 0 0 1 309 191)"  >
<polygon style="stroke: rgb(0,0,0); stroke-width: 2; stroke-dasharray: none; stroke-linecap: butt; stroke-dashoffset: 0; stroke-linejoin: miter; stroke-miterlimit: 4; fill: rgb(246,152,186); fill-rule: nonzero; opacity: 1;" vector-effect="non-scaling-stroke"  points="-50,-50 -50,50 50,50 50,-50 " />
</g>
<g transform="matrix(0.23 0 0 0.23 330.77 163.78)"  >
<circle style="stroke: rgb(0,0,0); stroke-width: 8; stroke-dasharray: none; stroke-linecap: butt; stroke-dashoffset: 0; stroke-linejoin: miter; stroke-miterlimit: 4; fill: rgb(9,9,8); fill-rule: nonzero; opacity: 1;"  cx="0" cy="0" r="40" />
</g>
<g transform="matrix(0.23 0 0 0.23 331.12 219.12)"  >
<circle style="stroke: rgb(0,0,0); stroke-width: 8; stroke-dasharray: none; stroke-linecap: butt; stroke-dashoffset: 0; stroke-linejoin: miter; stroke-miterlimit: 4; fill: rgb(9,9,8); fill-rule: nonzero; opacity: 1;"  cx="0" cy="0" r="40" />
</g>
<g transform="matrix(0.23 0 0 0.23 288.12 164.12)"  >
<circle style="stroke: rgb(0,0,0); stroke-width: 8; stroke-dasharray: none; stroke-linecap: butt; stroke-dashoffset: 0; stroke-linejoin: miter; stroke-miterlimit: 4; fill: rgb(9,9,8); fill-rule: nonzero; opacity: 1;"  cx="0" cy="0" r="40" />
</g>
<g transform="matrix(0.23 0 0 0.23 288.12 219.12)"  >
<circle style="stroke: rgb(0,0,0); stroke-width: 8; stroke-dasharray: none; stroke-linecap: butt; stroke-dashoffset: 0; stroke-linejoin: miter; stroke-miterlimit: 4; fill: rgb(9,9,8); fill-rule: nonzero; opacity: 1;"  cx="0" cy="0" r="40" />
</g>
<g transform="matrix(0.23 0 0 0.23 288.12 191.12)"  >
<circle style="stroke: rgb(0,0,0); stroke-width: 8; stroke-dasharray: none; stroke-linecap: butt; stroke-dashoffset: 0; stroke-linejoin: miter; stroke-miterlimit: 4; fill: rgb(9,9,8); fill-rule: nonzero; opacity: 1;"  cx="0" cy="0" r="40" />
</g>
<g transform="matrix(0.23 0 0 0.23 331.12 191.12)"  >
<circle style="stroke: rgb(0,0,0); stroke-width: 8; stroke-dasharray: none; stroke-linecap: butt; stroke-dashoffset: 0; stroke-linejoin: miter; stroke-miterlimit: 4; fill: rgb(9,9,8); fill-rule: nonzero; opacity: 1;"  cx="0" cy="0" r="40" />
</g>
<g transform="matrix(1 0 0 1 499.5 279)"  >
<line style="stroke: rgb(0,0,0); stroke-width: 2; stroke-dasharray: none; stroke-linecap: butt; stroke-dashoffset: 0; stroke-linejoin: miter; stroke-miterlimit: 4; fill: rgb(0,0,0); fill-rule: nonzero; opacity: 1;" vector-effect="non-scaling-stroke"  x1="0" y1="0" x2="0" y2="0" />
</g>
</svg>